<svg width="243" height="243" viewBox="0 0 243 243" fill="none" xmlns="http://www.w3.org/2000/svg">
<rect width="243" height="243" fill="white"/>
<path fill-rule="evenodd" clip-rule="evenodd" d="M94.3949 176.627C93.9116 176.594 93.4282 176.567 92.9473 176.524C90.2433 176.271 87.7619 175.388 85.5605 173.796C81.763 171.045 79.3343 167.386 78.3676 162.784C78.0164 161.063 77.8981 159.302 78.0158 157.549C78.1465 155.494 78.5472 153.466 79.2075 151.516C80.2579 148.387 81.8396 145.546 83.8424 142.928C85.3506 140.965 87.0578 139.163 88.9368 137.552C90.688 136.029 92.3133 134.367 93.7967 132.582C95.6823 130.344 97.386 127.973 99.073 125.585C100.561 123.475 102.026 121.35 103.605 119.311C104.779 117.761 106.062 116.298 107.446 114.932C109.192 113.24 111.121 111.809 113.394 110.879C115.085 110.185 116.889 109.811 118.716 109.773C120.793 109.722 122.867 109.942 124.887 110.426C127.937 111.171 130.734 112.713 132.992 114.894C134.576 116.401 135.916 118.11 137.16 119.895C138.483 121.79 139.697 123.755 140.948 125.695C142.36 127.88 143.819 130.031 145.447 132.065C147.065 134.09 148.861 135.967 150.811 137.674C153.174 139.726 155.273 142.065 157.059 144.635C158.591 146.833 159.814 149.231 160.691 151.763C161.375 153.736 161.781 155.794 161.897 157.879C162.065 161.066 161.515 164.115 160.067 166.981C158.727 169.638 156.789 171.774 154.358 173.466C152.568 174.713 150.637 175.66 148.512 176.187C147.76 176.377 146.994 176.511 146.222 176.586C146.115 176.598 146.01 176.614 145.906 176.634C145.805 176.689 145.695 176.646 145.588 176.658C145.499 176.673 145.408 176.634 145.325 176.687H143.343C143.264 176.632 143.176 176.67 143.092 176.661H142.673C140.984 176.606 139.345 176.254 137.708 175.873C134.94 175.227 132.224 174.378 129.467 173.677C127.242 173.093 124.979 172.663 122.695 172.389C121.112 172.222 119.519 172.172 117.929 172.241C116.66 172.284 115.397 172.48 114.148 172.712C111.683 173.177 109.269 173.837 106.852 174.497C104.297 175.201 101.741 175.897 99.1232 176.326C98.0584 176.498 96.9936 176.646 95.9096 176.637C95.6871 176.632 95.4669 176.665 95.242 176.661C94.9549 176.644 94.6749 176.694 94.3925 176.629M143.231 67.0127C146.791 67.441 149.514 69.2524 151.594 72.1071C153.018 74.0645 153.915 76.2611 154.47 78.6085C154.936 80.6235 155.133 82.6914 155.056 84.7581C154.939 88.5324 154.026 92.2394 152.376 95.6361C151.256 98.0112 149.729 100.172 147.863 102.02C146.181 103.666 144.279 104.983 142.058 105.803C140.498 106.378 138.895 106.665 137.234 106.564C134.358 106.399 131.915 105.255 129.864 103.26C128.113 101.556 126.921 99.4933 126.096 97.2129C125.529 95.622 125.151 93.97 124.971 92.2908C124.84 91.1425 124.792 89.9861 124.827 88.8308C124.913 86.1061 125.4 83.4564 126.287 80.8817C127.2 78.1521 128.584 75.6034 130.376 73.3514C131.908 71.4515 133.695 69.8435 135.839 68.6566C137.397 67.7776 139.116 67.2194 140.893 67.0151C140.948 66.984 141.008 66.9983 141.063 66.9936H141.233C141.316 66.984 141.403 67.0223 141.477 66.9648H142.645C142.719 67.0247 142.805 66.984 142.886 66.9936H143.058C143.114 66.9936 143.173 66.9816 143.231 67.0127ZM61.2874 109.077C61.3424 107.99 61.5386 106.923 61.8234 105.873C62.3785 103.832 63.283 101.972 64.6948 100.381C66.2124 98.6261 68.2751 97.4313 70.5525 96.988C72.4477 96.6147 74.3189 96.7727 76.1566 97.3422C78.2719 97.993 80.1407 99.1033 81.8037 100.549C84.3832 102.786 86.2353 105.54 87.5155 108.689C88.1855 110.34 88.6489 112.047 88.9057 113.81C89.0302 114.664 89.09 115.523 89.1091 116.389C89.1497 118.02 88.9677 119.649 88.5683 121.23C88.0252 123.348 87.1111 125.274 85.6562 126.925C84.0529 128.791 81.8368 130.024 79.4061 130.402C77.5732 130.699 75.7713 130.498 74.0102 129.928C71.6413 129.16 69.6073 127.839 67.8175 126.128C66.0938 124.469 64.6691 122.524 63.606 120.381C62.5438 118.285 61.8202 116.034 61.462 113.712L61.2945 112.472C61.2515 112.283 61.2706 112.089 61.2228 111.903C61.2012 111.824 61.2132 111.75 61.2108 111.668C61.1964 111.57 61.2419 111.462 61.1797 111.364V109.847C61.2754 109.708 61.2275 109.555 61.2371 109.407C61.2467 109.297 61.218 109.177 61.2874 109.077ZM86.2999 84.7725C86.3119 81.7623 86.7402 79.0512 87.7476 76.4382C88.5061 74.4641 89.5494 72.6598 91.0019 71.1069C92.5644 69.4271 94.4213 68.2259 96.661 67.6588C98.9007 67.0917 101.102 67.252 103.265 68.0345C105.172 68.7284 106.835 69.8171 108.314 71.193C110.671 73.3849 112.358 76.0338 113.562 79.0033C114.326 80.8905 114.856 82.8407 115.153 84.8538C115.324 85.9944 115.421 87.143 115.445 88.2996C115.475 89.7551 115.373 91.2104 115.139 92.6474C114.639 95.6528 113.619 98.4524 111.801 100.927C110.699 102.464 109.267 103.735 107.611 104.648C105.769 105.659 103.67 106.105 101.576 105.93C99.6473 105.784 97.867 105.152 96.2087 104.169C94.0456 102.889 92.294 101.161 90.8344 99.1272C89.1315 96.7237 87.8871 94.0264 87.1637 91.171C86.7522 89.6036 86.4862 88.0016 86.3693 86.3853C86.3159 85.8494 86.2928 85.311 86.2999 84.7725ZM180.818 110.843V111.192C180.686 114.095 179.908 116.825 178.657 119.428C177.681 121.462 176.397 123.333 174.852 124.977C172.854 127.095 170.536 128.748 167.777 129.739C166.143 130.344 164.403 130.613 162.663 130.529C160.137 130.42 157.734 129.406 155.894 127.672C154.319 126.207 153.283 124.408 152.628 122.383C152.048 120.577 151.789 118.684 151.862 116.789C151.991 112.597 153.314 108.787 155.611 105.301C156.384 104.123 157.276 103.028 158.272 102.032C160.323 99.9887 162.668 98.4189 165.446 97.5264C167.007 97.0134 168.653 96.8086 170.292 96.9234C172.756 97.0871 175.084 98.112 176.87 99.8188C178.535 101.391 179.588 103.331 180.222 105.514C180.574 106.717 180.779 107.95 180.82 109.206V109.558C180.807 109.986 180.805 110.414 180.818 110.843Z" fill="#FF7E36"/>
</svg>
