<svg width="68" height="68" viewBox="0 0 68 68" fill="none" xmlns="http://www.w3.org/2000/svg">
<path fill-rule="evenodd" clip-rule="evenodd" d="M20.4981 61.7237C20.2528 61.7067 20.0075 61.6934 19.7634 61.6715C18.3913 61.5428 17.1321 61.0947 16.0149 60.2872C14.0879 58.8908 12.8554 57.0341 12.3648 54.6991C12.1866 53.8254 12.1266 52.9318 12.1863 52.0422C12.2526 50.9997 12.4559 49.9704 12.791 48.981C13.3241 47.3927 14.1267 45.9514 15.1431 44.6229C15.9084 43.6267 16.7748 42.7123 17.7283 41.8944C18.617 41.1216 19.4417 40.2781 20.1945 39.3724C21.1514 38.237 22.0159 37.0336 22.872 35.8218C23.6273 34.7508 24.3704 33.6725 25.1719 32.6379C25.7676 31.8516 26.4189 31.109 27.1208 30.4158C28.0072 29.5573 28.9859 28.8311 30.1395 28.3588C30.9975 28.0071 31.913 27.8169 32.8401 27.7978C33.8939 27.7719 34.9467 27.8833 35.9717 28.1293C37.5194 28.507 38.9388 29.2895 40.0845 30.3964C40.8884 31.1614 41.5684 32.0284 42.1998 32.9342C42.8713 33.8959 43.4869 34.8929 44.122 35.8776C44.8384 36.9863 45.5791 38.0779 46.4049 39.1101C47.2263 40.1375 48.1374 41.09 49.1273 41.9564C50.3263 42.998 51.3912 44.1846 52.2978 45.4887C53.0753 46.6042 53.6956 47.8214 54.1411 49.1061C54.4881 50.1072 54.6941 51.1518 54.7531 52.2098C54.8381 53.8272 54.5588 55.3742 53.8241 56.8289C53.1441 58.1768 52.1606 59.2611 50.9269 60.1196C50.0186 60.7523 49.0386 61.2331 47.9604 61.5003C47.5786 61.5968 47.1902 61.6646 46.7983 61.7031C46.7441 61.7087 46.6906 61.7168 46.638 61.7274C46.587 61.7553 46.5311 61.7334 46.4765 61.7395C46.4316 61.7468 46.3854 61.7274 46.3429 61.7541H45.3375C45.2974 61.7261 45.2525 61.7456 45.21 61.7407H44.9975C44.1402 61.7128 43.3084 61.5343 42.4779 61.3412C41.0729 61.0134 39.6947 60.5823 38.2959 60.2265C37.1667 59.9303 36.0185 59.7121 34.8594 59.5732C34.0561 59.4881 33.2476 59.4629 32.4406 59.4979C31.797 59.5198 31.1559 59.6194 30.522 59.7371C29.2713 59.9727 28.0461 60.3079 26.8196 60.643C25.5228 61 24.2259 61.3534 22.8975 61.5707C22.3571 61.6581 21.8168 61.7334 21.2667 61.7286C21.1538 61.7261 21.0421 61.7431 20.9279 61.7407C20.7822 61.7322 20.6401 61.7577 20.4969 61.7249M45.2804 6.0985C47.0873 6.31586 48.4691 7.23508 49.5244 8.68372C50.2469 9.677 50.7022 10.7917 50.9839 11.9829C51.2203 13.0055 51.3203 14.0548 51.2814 15.1036C51.2221 17.019 50.7586 18.9001 49.9214 20.6238C49.353 21.8291 48.5779 22.9256 47.6313 23.8635C46.7776 24.6989 45.8123 25.3668 44.6854 25.7833C43.8937 26.0747 43.0801 26.2204 42.2374 26.1694C40.7779 26.0856 39.5381 25.5052 38.4974 24.4925C37.6086 23.6279 37.0039 22.5812 36.5849 21.424C36.2974 20.6167 36.1059 19.7783 36.0142 18.9262C35.9476 18.3435 35.9232 17.7566 35.9414 17.1704C35.9851 15.7877 36.232 14.4431 36.6821 13.1365C37.1454 11.7513 37.8477 10.458 38.7573 9.31515C39.5344 8.351 40.4415 7.535 41.5295 6.93272C42.3202 6.48664 43.1922 6.20341 44.0941 6.09972C44.122 6.08393 44.1524 6.09122 44.1803 6.08879H44.2665C44.309 6.08393 44.3527 6.10336 44.3904 6.07422H44.9829C45.0206 6.10458 45.0643 6.08393 45.1056 6.08879H45.193C45.2209 6.08879 45.2513 6.08272 45.2804 6.0985ZM3.69722 27.4444C3.72515 26.8931 3.82472 26.3516 3.96922 25.8185C4.25094 24.7827 4.70994 23.8392 5.42636 23.0317C6.19649 22.1411 7.24324 21.5348 8.39893 21.3099C9.36065 21.1204 10.3102 21.2006 11.2428 21.4896C12.3162 21.8199 13.2646 22.3833 14.1085 23.1167C15.4175 24.2521 16.3574 25.6497 17.007 27.2477C17.347 28.0856 17.5822 28.9518 17.7125 29.8463C17.7756 30.2798 17.806 30.7157 17.8157 31.1553C17.8363 31.9828 17.744 32.8092 17.5413 33.6118C17.2656 34.6864 16.8018 35.6639 16.0635 36.5018C15.2499 37.4486 14.1253 38.0742 12.8918 38.2661C11.9616 38.4167 11.0473 38.3147 10.1536 38.0257C8.95144 37.6359 7.91929 36.9656 7.01101 36.0974C6.1363 35.2552 5.41333 34.2686 4.87386 33.1807C4.33481 32.1172 3.96759 30.9749 3.78586 29.7965L3.70086 29.1675C3.67901 29.0716 3.68872 28.9732 3.66444 28.8785C3.65351 28.8384 3.65958 28.8008 3.65836 28.7595C3.65108 28.7097 3.67415 28.6551 3.64258 28.6053V27.8354C3.69115 27.765 3.66686 27.6873 3.67172 27.612C3.67658 27.5561 3.66201 27.4954 3.69722 27.4444ZM16.3901 15.1109C16.3962 13.5834 16.6136 12.2076 17.1248 10.8816C17.5097 9.87979 18.0391 8.96422 18.7762 8.17615C19.5691 7.32372 20.5114 6.71415 21.648 6.42636C22.7846 6.13858 23.9017 6.21993 24.9994 6.617C25.9672 6.96915 26.8111 7.52165 27.5616 8.21986C28.7576 9.33215 29.6137 10.6764 30.2245 12.1833C30.6123 13.141 30.8814 14.1306 31.032 15.1522C31.1186 15.731 31.168 16.3139 31.1801 16.9008C31.1956 17.6394 31.1435 18.378 31.0247 19.1071C30.7709 20.6323 30.2536 22.053 29.3308 23.3086C28.7717 24.0886 28.0452 24.7338 27.2046 25.1968C26.2699 25.7098 25.2047 25.9362 24.1421 25.8476C23.1634 25.7736 22.26 25.453 21.4185 24.9539C20.3208 24.3043 19.4319 23.4276 18.6912 22.3954C17.8271 21.1757 17.1956 19.8069 16.8285 18.3579C16.6197 17.5625 16.4847 16.7496 16.4254 15.9294C16.3983 15.6574 16.3865 15.3842 16.3901 15.1109ZM64.3544 28.3406V28.5179C64.2876 29.9908 63.893 31.3763 63.2579 32.6974C62.7624 33.7295 62.1113 34.6792 61.3272 35.5134C60.3133 36.588 59.1366 37.4271 57.7366 37.9298C56.9075 38.2369 56.0248 38.3733 55.1416 38.3305C53.8596 38.2754 52.6402 37.7608 51.7064 36.8806C50.9074 36.1375 50.3816 35.2244 50.0489 34.1971C49.7549 33.2806 49.6234 32.3198 49.6604 31.3581C49.7259 29.2306 50.3974 27.2975 51.5631 25.5283C51.9553 24.9306 52.4078 24.3748 52.9134 23.8696C53.9541 22.8326 55.1441 22.036 56.5539 21.5831C57.3459 21.3228 58.1811 21.2188 59.0128 21.2771C60.2634 21.3602 61.4449 21.8802 62.3509 22.7464C63.196 23.5441 63.7303 24.5289 64.0521 25.6364C64.2306 26.2471 64.335 26.8725 64.3556 27.51V27.6885C64.3492 27.9058 64.3479 28.1233 64.3544 28.3406Z" fill="#FF7E36"/>
</svg>
